# xmcd CD database file
#
# Track frame offsets:
#	150
#	41407
#	67571
#	118654
#	167761
#
# Disc length: 2888 seconds
#
# Revision: 0
# Processed by: cddbd v1.5.2PL0 Copyright (c) Steve Scherf et al.
# Submitted via: CDex 1.77
#
DISCID=340b4605
DTITLE=Fabrizio Bosso Quartet - State Of The Art - Live [CD2) 
DYEAR=2017
DGENRE=Jazz
TTITLE0=Black Spirit
TTITLE1=Goodness Gracious
TTITLE2=Mapa
TTITLE3=Misty
TTITLE4=Dizzy's Blues
EXTD=YEAR: 2017
EXTT0=
EXTT1=
EXTT2=
EXTT3=
EXTT4=
PLAYORDER=
